<svg viewBox="0 0 480 220" xmlns="http://www.w3.org/2000/svg">
<defs>
  <linearGradient id="toolBg" x1="0%" y1="0%" x2="100%" y2="100%">
    <stop offset="0%" stop-color="#1a0f2e"/>
    <stop offset="100%" stop-color="#2d1654"/>
  </linearGradient>
  <style>
    .sans { font-family: -apple-system, 'Segoe UI', Roboto, Helvetica, Arial, sans-serif; }
    .bar { width: 0; animation: growBar 1s ease-out forwards; }
    @keyframes growBar { to { width: var(--w); } }
  </style>
</defs>
<rect x="0" y="0" width="480" height="220" rx="14" fill="url(#toolBg)" stroke="#4a2b7a" stroke-width="1.5"/>
<text x="20" y="26" class="sans" font-size="16" font-weight="700" fill="#f5f0ff">Tools &amp; Practice</text>

  <text x="20" y="40" class="sans" font-size="13" fill="#f5f0ff">Figma</text>
  <rect x="20" y="46" width="340" height="10" rx="5" fill="#2d1a4a"/>
  <rect class="bar" x="20" y="46" width="247.0" height="10" rx="5" fill="#a855f7" style="--w:247.0px; animation-delay:0.2s"/>
  <text x="370" y="55" class="sans" font-size="11" fill="#c9a8ff">95%</text>
  <text x="20" y="74" class="sans" font-size="13" fill="#f5f0ff">Design Systems</text>
  <rect x="20" y="80" width="340" height="10" rx="5" fill="#2d1a4a"/>
  <rect class="bar" x="20" y="80" width="234.0" height="10" rx="5" fill="#ff6ec7" style="--w:234.0px; animation-delay:0.35s"/>
  <text x="370" y="89" class="sans" font-size="11" fill="#c9a8ff">90%</text>
  <text x="20" y="108" class="sans" font-size="13" fill="#f5f0ff">AI: Claude, ChatGPT, Midjourney</text>
  <rect x="20" y="114" width="340" height="10" rx="5" fill="#2d1a4a"/>
  <rect class="bar" x="20" y="114" width="221.0" height="10" rx="5" fill="#c084fc" style="--w:221.0px; animation-delay:0.5s"/>
  <text x="370" y="123" class="sans" font-size="11" fill="#c9a8ff">85%</text>
  <text x="20" y="142" class="sans" font-size="13" fill="#f5f0ff">Next.js (directed build)</text>
  <rect x="20" y="148" width="340" height="10" rx="5" fill="#2d1a4a"/>
  <rect class="bar" x="20" y="148" width="143.0" height="10" rx="5" fill="#f472b6" style="--w:143.0px; animation-delay:0.6499999999999999s"/>
  <text x="370" y="157" class="sans" font-size="11" fill="#c9a8ff">55%</text>
  <text x="20" y="176" class="sans" font-size="13" fill="#f5f0ff">FigJam / Whiteboarding</text>
  <rect x="20" y="182" width="340" height="10" rx="5" fill="#2d1a4a"/>
  <rect class="bar" x="20" y="182" width="182.0" height="10" rx="5" fill="#d8b4fe" style="--w:182.0px; animation-delay:0.8s"/>
  <text x="370" y="191" class="sans" font-size="11" fill="#c9a8ff">70%</text>
</svg>